{
  "accessors": [
    {
      "bufferView": 2,
      "componentType": 5126,
      "count": 25344,
      "max": [
        1.119859218597412,
        6.038444995880127,
        1.3572560548782349
      ],
      "min": [
        -1.1198599338531494,
        -1.9524861574172974,
        -6.073758125305176
      ],
      "type": "VEC3"
    },
    {
      "bufferView": 2,
      "byteOffset": 304128,
      "componentType": 5126,
      "count": 25344,
      "max": [
        1.0000005960464478,
        0.9999883770942688,
        0.9999901652336121
      ],
      "min": [
        -1.0000005960464478,
        -0.9999897480010986,
        -0.9999992847442627
      ],
      "type": "VEC3"
    },
    {
      "bufferView": 3,
      "componentType": 5126,
      "count": 25344,
      "max": [
        1.0,
        0.999997079372406,
        0.999991238117218,
        1.0
      ],
      "min": [
        -1.0,
        -0.9990643262863159,
        -0.99991375207901,
        -1.0
      ],
      "type": "VEC4"
    },
    {
      "bufferView": 1,
      "componentType": 5126,
      "count": 25344,
      "max": [
        0.9758700132369995,
        0.9597399830818176
      ],
      "min": [
        0.02669999934732914,
        0.004900000058114529
      ],
      "type": "VEC2"
    },
    {
      "bufferView": 1,
      "byteOffset": 202752,
      "componentType": 5126,
      "count": 25344,
      "max": [
        0.921459972858429,
        0.96492999792099
      ],
      "min": [
        0.07996000349521637,
        0.11035999655723572
      ],
      "type": "VEC2"
    },
    {
      "bufferView": 1,
      "byteOffset": 405504,
      "componentType": 5126,
      "count": 25344,
      "max": [
        0.4961099922657013,
        0.9549499750137329
      ],
      "min": [
        0.03325999900698662,
        0.11764000356197357
      ],
      "type": "VEC2"
    },
    {
      "bufferView": 0,
      "componentType": 5125,
      "count": 130449,
      "type": "SCALAR"
    },
    {
      "bufferView": 4,
      "componentType": 5126,
      "count": 1,
      "max": [
        1.0,
        0.0,
        0.0,
        0.0,
        0.0,
        1.0,
        0.0,
        0.0,
        0.0,
        0.0,
        1.0,
        0.0,
        0.0,
        0.0,
        0.0,
        1.0
      ],
      "min": [
        1.0,
        0.0,
        0.0,
        0.0,
        0.0,
        1.0,
        0.0,
        0.0,
        0.0,
        0.0,
        1.0,
        0.0,
        0.0,
        0.0,
        0.0,
        1.0
      ],
      "type": "MAT4"
    }
  ],
  "asset": {
    "extras": {
      "author": "felifan (https://sketchfab.com/felifan)",
      "license": "CC-BY-4.0 (http://creativecommons.org/licenses/by/4.0/)",
      "source": "https://sketchfab.com/3d-models/doe-model-1b5a7d6628ba41a58b5f48c4e52d4eeb",
      "title": "Doe Model"
    },
    "generator": "Sketchfab-12.66.0",
    "version": "2.0"
  },
  "bufferViews": [
    {
      "buffer": 0,
      "byteLength": 521796,
      "name": "floatBufferViews",
      "target": 34963
    },
    {
      "buffer": 0,
      "byteLength": 608256,
      "byteOffset": 521796,
      "byteStride": 8,
      "name": "floatBufferViews",
      "target": 34962
    },
    {
      "buffer": 0,
      "byteLength": 608256,
      "byteOffset": 1130052,
      "byteStride": 12,
      "name": "floatBufferViews",
      "target": 34962
    },
    {
      "buffer": 0,
      "byteLength": 405504,
      "byteOffset": 1738308,
      "byteStride": 16,
      "name": "floatBufferViews",
      "target": 34962
    },
    {
      "buffer": 0,
      "byteLength": 64,
      "byteOffset": 2143812,
      "name": "floatBufferViews"
    }
  ],
  "buffers": [
    {
      "byteLength": 2143876,
      "uri": "scene.bin"
    }
  ],
  "extensionsRequired": [
    "KHR_materials_pbrSpecularGlossiness"
  ],
  "extensionsUsed": [
    "KHR_materials_pbrSpecularGlossiness"
  ],
  "images": [
    {
      "uri": "textures/Doe_material_diffuse.png"
    },
    {
      "uri": "textures/Doe_material_specularGlossiness.png"
    },
    {
      "uri": "textures/Doe_material_normal.png"
    }
  ],
  "materials": [
    {
      "doubleSided": true,
      "extensions": {
        "KHR_materials_pbrSpecularGlossiness": {
          "diffuseFactor": [
            0.0,
            0.0,
            0.0,
            1.0
          ],
          "diffuseTexture": {
            "index": 0
          },
          "glossinessFactor": 0.0,
          "specularFactor": [
            1.0,
            1.0,
            1.0
          ],
          "specularGlossinessTexture": {
            "index": 1
          }
        }
      },
      "name": "Doe_material",
      "normalTexture": {
        "index": 2,
        "scale": 0.33927087783813475
      }
    }
  ],
  "meshes": [
    {
      "name": "Doe_Head_0",
      "primitives": [
        {
          "attributes": {
            "NORMAL": 1,
            "POSITION": 0,
            "TANGENT": 2,
            "TEXCOORD_0": 3,
            "TEXCOORD_1": 4,
            "TEXCOORD_2": 5
          },
          "indices": 6,
          "material": 0,
          "mode": 4
        }
      ]
    }
  ],
  "nodes": [
    {
      "children": [
        1
      ],
      "matrix": [
        1.0,
        0.0,
        0.0,
        0.0,
        0.0,
        2.220446049250313e-16,
        -1.0,
        0.0,
        0.0,
        1.0,
        2.220446049250313e-16,
        0.0,
        0.0,
        0.0,
        0.0,
        1.0
      ],
      "name": "Sketchfab_model"
    },
    {
      "children": [
        2,
        6
      ],
      "name": "Root"
    },
    {
      "children": [
        3,
        4
      ],
      "matrix": [
        1.0,
        0.0,
        0.0,
        0.0,
        0.0,
        1.0,
        0.0,
        0.0,
        0.0,
        0.0,
        1.0,
        0.0,
        0.0,
        4.4965600000000006,
        4.76928,
        1.0
      ],
      "name": "Jane Doe"
    },
    {
      "name": "Jane Doe_rootJoint"
    },
    {
      "children": [
        5
      ],
      "matrix": [
        1.0,
        0.0,
        0.0,
        0.0,
        0.0,
        1.0,
        0.0,
        0.0,
        0.0,
        0.0,
        1.0,
        0.0,
        0.0,
        -4.24652,
        1.30614,
        1.0
      ],
      "name": "Doe_Head"
    },
    {
      "mesh": 0,
      "name": "Doe_Head_0"
    },
    {
      "children": [
        7
      ],
      "matrix": [
        0.8741000000000001,
        -0.29899000000000003,
        0.3828200000000001,
        0.0,
        0.16154000000000004,
        0.92218,
        0.35140000000000005,
        0.0,
        -0.4581,
        -0.24532,
        0.85438,
        0.0,
        -2.56561,
        0.4340200000000001,
        8.98465,
        1.0
      ],
      "name": "Hemi"
    },
    {
      "name": "Hemi"
    }
  ],
  "samplers": [
    {
      "magFilter": 9729,
      "minFilter": 9987,
      "wrapS": 10497,
      "wrapT": 10497
    }
  ],
  "scene": 0,
  "scenes": [
    {
      "name": "Sketchfab_Scene",
      "nodes": [
        0
      ]
    }
  ],
  "skins": [
    {
      "inverseBindMatrices": 7,
      "joints": [
        3
      ],
      "skeleton": 3
    }
  ],
  "textures": [
    {
      "sampler": 0,
      "source": 0
    },
    {
      "sampler": 0,
      "source": 1
    },
    {
      "sampler": 0,
      "source": 2
    }
  ]
}
