{
  "accessors": [
    {
      "bufferView": 2,
      "componentType": 5126,
      "count": 18425,
      "max": [
        1.7260820865631104,
        1.8984251022338867,
        1.501265048980713
      ],
      "min": [
        -1.7260820865631104,
        -3.830465793609619,
        -2.5733911991119385
      ],
      "type": "VEC3"
    },
    {
      "bufferView": 2,
      "byteOffset": 221100,
      "componentType": 5126,
      "count": 18425,
      "max": [
        1.0,
        1.0,
        1.0
      ],
      "min": [
        -1.0,
        -1.0,
        -0.9999935030937195
      ],
      "type": "VEC3"
    },
    {
      "bufferView": 1,
      "componentType": 5126,
      "count": 18425,
      "max": [
        0.7500001788139343,
        0.6250102519989014
      ],
      "min": [
        0.0,
        0.0
      ],
      "type": "VEC2"
    },
    {
      "bufferView": 0,
      "componentType": 5125,
      "count": 27708,
      "type": "SCALAR"
    },
    {
      "bufferView": 2,
      "byteOffset": 442200,
      "componentType": 5126,
      "count": 559,
      "max": [
        1.000000238418579,
        1.0,
        1.0
      ],
      "min": [
        -0.9999998211860657,
        -1.0000003576278687,
        -1.0
      ],
      "type": "VEC3"
    },
    {
      "bufferView": 2,
      "byteOffset": 448908,
      "componentType": 5126,
      "count": 559,
      "max": [
        1.0,
        1.0,
        1.0
      ],
      "min": [
        -1.0,
        -1.0,
        -1.0
      ],
      "type": "VEC3"
    },
    {
      "bufferView": 1,
      "byteOffset": 147400,
      "componentType": 5126,
      "count": 559,
      "max": [
        1.000000238418579,
        1.0
      ],
      "min": [
        0.0,
        0.0
      ],
      "type": "VEC2"
    },
    {
      "bufferView": 0,
      "byteOffset": 110832,
      "componentType": 5125,
      "count": 2880,
      "type": "SCALAR"
    },
    {
      "bufferView": 2,
      "byteOffset": 455616,
      "componentType": 5126,
      "count": 559,
      "max": [
        1.000000238418579,
        1.0,
        1.0
      ],
      "min": [
        -0.9999998211860657,
        -1.0000003576278687,
        -1.0
      ],
      "type": "VEC3"
    },
    {
      "bufferView": 2,
      "byteOffset": 462324,
      "componentType": 5126,
      "count": 559,
      "max": [
        1.0,
        1.0,
        1.0
      ],
      "min": [
        -1.0,
        -1.0,
        -1.0
      ],
      "type": "VEC3"
    },
    {
      "bufferView": 1,
      "byteOffset": 151872,
      "componentType": 5126,
      "count": 559,
      "max": [
        1.000000238418579,
        1.0
      ],
      "min": [
        0.0,
        0.0
      ],
      "type": "VEC2"
    },
    {
      "bufferView": 0,
      "byteOffset": 122352,
      "componentType": 5125,
      "count": 2880,
      "type": "SCALAR"
    },
    {
      "bufferView": 2,
      "byteOffset": 469032,
      "componentType": 5126,
      "count": 262,
      "max": [
        0.3588557243347168,
        1.645134449005127,
        1.8904850482940674
      ],
      "min": [
        -0.35885560512542725,
        -0.5023095011711121,
        -1.0145525932312012
      ],
      "type": "VEC3"
    },
    {
      "bufferView": 2,
      "byteOffset": 472176,
      "componentType": 5126,
      "count": 262,
      "max": [
        0.9993895292282104,
        0.9560794234275818,
        0.9914606213569641
      ],
      "min": [
        -0.9993895292282104,
        -0.9473381638526917,
        -0.6889491677284241
      ],
      "type": "VEC3"
    },
    {
      "bufferView": 1,
      "byteOffset": 156344,
      "componentType": 5126,
      "count": 262,
      "max": [
        1.0,
        1.0
      ],
      "min": [
        0.0,
        0.01000000536441803
      ],
      "type": "VEC2"
    },
    {
      "bufferView": 0,
      "byteOffset": 133872,
      "componentType": 5125,
      "count": 1140,
      "type": "SCALAR"
    },
    {
      "bufferView": 2,
      "byteOffset": 475320,
      "componentType": 5126,
      "count": 262,
      "max": [
        0.3588557243347168,
        1.645134449005127,
        1.8904850482940674
      ],
      "min": [
        -0.35885560512542725,
        -0.5023095011711121,
        -1.0145525932312012
      ],
      "type": "VEC3"
    },
    {
      "bufferView": 2,
      "byteOffset": 478464,
      "componentType": 5126,
      "count": 262,
      "max": [
        0.9993895292282104,
        0.9560794234275818,
        0.9914606213569641
      ],
      "min": [
        -0.9993895292282104,
        -0.9473381638526917,
        -0.6889491677284241
      ],
      "type": "VEC3"
    },
    {
      "bufferView": 1,
      "byteOffset": 158440,
      "componentType": 5126,
      "count": 262,
      "max": [
        1.0,
        1.0
      ],
      "min": [
        0.0,
        0.01000000536441803
      ],
      "type": "VEC2"
    },
    {
      "bufferView": 0,
      "byteOffset": 138432,
      "componentType": 5125,
      "count": 1140,
      "type": "SCALAR"
    },
    {
      "bufferView": 2,
      "byteOffset": 481608,
      "componentType": 5126,
      "count": 832,
      "max": [
        -4.027253150939941,
        0.407356858253479,
        1.0865142345428467
      ],
      "min": [
        -5.481949329376221,
        -0.5635659098625183,
        -1.710701823234558
      ],
      "type": "VEC3"
    },
    {
      "bufferView": 2,
      "byteOffset": 491592,
      "componentType": 5126,
      "count": 832,
      "max": [
        0.9942536950111389,
        0.993309736251831,
        0.9398530721664429
      ],
      "min": [
        -0.9243780374526978,
        -0.9951692819595337,
        -0.9398525357246399
      ],
      "type": "VEC3"
    },
    {
      "bufferView": 1,
      "byteOffset": 160536,
      "componentType": 5126,
      "count": 832,
      "max": [
        1.0,
        1.0
      ],
      "min": [
        0.0,
        0.01000000536441803
      ],
      "type": "VEC2"
    },
    {
      "bufferView": 0,
      "byteOffset": 142992,
      "componentType": 5125,
      "count": 1332,
      "type": "SCALAR"
    }
  ],
  "asset": {
    "extras": {
      "author": "Akshat (https://sketchfab.com/shooter24994)",
      "license": "CC-BY-4.0 (http://creativecommons.org/licenses/by/4.0/)",
      "source": "https://sketchfab.com/3d-models/elephant-low-poly-e89db313cf0149a09df61949018389fd",
      "title": "Elephant Low Poly"
    },
    "generator": "Sketchfab-12.65.0",
    "version": "2.0"
  },
  "bufferViews": [
    {
      "buffer": 0,
      "byteLength": 148320,
      "name": "floatBufferViews",
      "target": 34963
    },
    {
      "buffer": 0,
      "byteLength": 167192,
      "byteOffset": 148320,
      "byteStride": 8,
      "name": "floatBufferViews",
      "target": 34962
    },
    {
      "buffer": 0,
      "byteLength": 501576,
      "byteOffset": 315512,
      "byteStride": 12,
      "name": "floatBufferViews",
      "target": 34962
    }
  ],
  "buffers": [
    {
      "byteLength": 817088,
      "uri": "scene.bin"
    }
  ],
  "materials": [
    {
      "doubleSided": true,
      "name": "teeth__0",
      "pbrMetallicRoughness": {
        "metallicFactor": 0.0,
        "roughnessFactor": 0.0
      }
    },
    {
      "doubleSided": true,
      "name": "body",
      "pbrMetallicRoughness": {
        "baseColorFactor": [
          0.0761854,
          0.0722719,
          0.171441,
          1.0
        ],
        "metallicFactor": 0.0,
        "roughnessFactor": 0.5
      }
    },
    {
      "doubleSided": true,
      "name": "material",
      "pbrMetallicRoughness": {
        "baseColorFactor": [
          0.0,
          0.0,
          0.0,
          1.0
        ],
        "metallicFactor": 0.0
      }
    },
    {
      "doubleSided": true,
      "name": "tail",
      "pbrMetallicRoughness": {
        "baseColorFactor": [
          0.07618538148130778,
          0.07227185068231748,
          0.17144110073282254,
          1.0
        ],
        "metallicFactor": 0.0,
        "roughnessFactor": 0.5
      }
    }
  ],
  "meshes": [
    {
      "name": "body_body_0",
      "primitives": [
        {
          "attributes": {
            "NORMAL": 1,
            "POSITION": 0,
            "TEXCOORD_0": 2
          },
          "indices": 3,
          "material": 1,
          "mode": 4
        }
      ]
    },
    {
      "name": "eye_eye_0",
      "primitives": [
        {
          "attributes": {
            "NORMAL": 5,
            "POSITION": 4,
            "TEXCOORD_0": 6
          },
          "indices": 7,
          "material": 2,
          "mode": 4
        }
      ]
    },
    {
      "name": "eye.001_eye_0",
      "primitives": [
        {
          "attributes": {
            "NORMAL": 9,
            "POSITION": 8,
            "TEXCOORD_0": 10
          },
          "indices": 11,
          "material": 2,
          "mode": 4
        }
      ]
    },
    {
      "name": "teeth__0",
      "primitives": [
        {
          "attributes": {
            "NORMAL": 13,
            "POSITION": 12,
            "TEXCOORD_0": 14
          },
          "indices": 15,
          "material": 0,
          "mode": 4
        }
      ]
    },
    {
      "name": "teeth.001__0",
      "primitives": [
        {
          "attributes": {
            "NORMAL": 17,
            "POSITION": 16,
            "TEXCOORD_0": 18
          },
          "indices": 19,
          "material": 0,
          "mode": 4
        }
      ]
    },
    {
      "name": "tail_tail_0",
      "primitives": [
        {
          "attributes": {
            "NORMAL": 21,
            "POSITION": 20,
            "TEXCOORD_0": 22
          },
          "indices": 23,
          "material": 3,
          "mode": 4
        }
      ]
    }
  ],
  "nodes": [
    {
      "children": [
        1
      ],
      "matrix": [
        2.220446049250313e-16,
        -2.220446049250313e-16,
        1.0,
        0.0,
        1.0,
        4.930380657631324e-32,
        -2.220446049250313e-16,
        0.0,
        0.0,
        1.0,
        2.220446049250313e-16,
        0.0,
        336.1534423828125,
        7.709737396906188e-06,
        348.1689147949219,
        1.0
      ],
      "name": "Sketchfab_model"
    },
    {
      "children": [
        2
      ],
      "matrix": [
        1.0,
        0.0,
        0.0,
        0.0,
        0.0,
        0.0,
        1.0,
        0.0,
        0.0,
        -1.0,
        0.0,
        0.0,
        0.0,
        0.0,
        0.0,
        1.0
      ],
      "name": "a5d99e44a0e946f198ed55618c1e0690.fbx"
    },
    {
      "children": [
        3,
        5,
        7,
        9,
        11,
        13
      ],
      "name": "RootNode"
    },
    {
      "children": [
        4
      ],
      "matrix": [
        83.49927520751953,
        0.0,
        0.0,
        0.0,
        0.0,
        -1.3603758645534587e-05,
        -83.49927520751842,
        0.0,
        0.0,
        83.49927520751842,
        -1.3603758645534587e-05,
        0.0,
        0.0,
        199.47512817382813,
        268.78424072265625,
        1.0
      ],
      "name": "body"
    },
    {
      "mesh": 0,
      "name": "body_body_0"
    },
    {
      "children": [
        6
      ],
      "matrix": [
        9.384441375732422,
        0.0,
        0.0,
        0.0,
        0.0,
        -1.5289195646471392e-06,
        -9.384441375732298,
        0.0,
        0.0,
        9.384441375732298,
        -1.5289195646471392e-06,
        0.0,
        28.37013053894043,
        232.54971313476563,
        508.0556335449219,
        1.0
      ],
      "name": "eye"
    },
    {
      "mesh": 1,
      "name": "eye_eye_0"
    },
    {
      "children": [
        8
      ],
      "matrix": [
        9.384441375732422,
        0.0,
        0.0,
        0.0,
        -0.0,
        -1.5289195646471392e-06,
        -9.384441375732298,
        0.0,
        0.0,
        9.384441375732298,
        -1.5289195646471392e-06,
        0.0,
        -28.370100021362305,
        232.54971313476563,
        508.0556335449219,
        1.0
      ],
      "name": "eye.001"
    },
    {
      "mesh": 2,
      "name": "eye.001_eye_0"
    },
    {
      "children": [
        10
      ],
      "matrix": [
        29.901874542236328,
        -5.807572430296599e-15,
        -3.4215182123958313e-15,
        0.0,
        5.807572465223834e-15,
        14.492727500288822,
        26.15497946361291,
        0.0,
        -3.4215181531114922e-15,
        -26.15497946361291,
        14.492727500288822,
        0.0,
        12.883344650268555,
        154.56829833984375,
        538.9887084960938,
        1.0
      ],
      "name": "teeth"
    },
    {
      "mesh": 3,
      "name": "teeth__0"
    },
    {
      "children": [
        12
      ],
      "matrix": [
        29.901874542236328,
        -5.807572430296599e-15,
        -3.4215182123958313e-15,
        0.0,
        5.807572465223834e-15,
        14.492727500288822,
        26.15497946361291,
        0.0,
        -3.4215181531114922e-15,
        -26.15497946361291,
        14.492727500288822,
        0.0,
        -12.883299827575684,
        154.56829833984375,
        538.9887084960938,
        1.0
      ],
      "name": "teeth.001"
    },
    {
      "mesh": 4,
      "name": "teeth.001__0"
    },
    {
      "children": [
        14
      ],
      "matrix": [
        47.82704552093349,
        -14.064804120378447,
        -4.989738007563819,
        0.0,
        0.8057739693386439,
        19.160670875579406,
        -46.28565548307861,
        0.0,
        14.901910234566499,
        44.10433607076853,
        18.517102762252353,
        0.0,
        224.15292358398438,
        88.66993713378906,
        93.32797241210938,
        1.0
      ],
      "name": "tail"
    },
    {
      "mesh": 5,
      "name": "tail_tail_0"
    }
  ],
  "scene": 0,
  "scenes": [
    {
      "name": "Sketchfab_Scene",
      "nodes": [
        0
      ]
    }
  ]
}
